Release Info:

General
Format                                   : Matroska
Format version                           : Version 2
File size                                : 674 MiB
Duration                                 : 1h 36mn
Overall bit rate                         : 979 Kbps


Video
ID                                       : 1
Format                                   : MPEG-4 Visual
Format profile                           : Advanced Simple@L5
Format settings, BVOP                    : Yes
Format settings, QPel                    : No
Format settings, GMC                     : No warppoints
Format settings, Matrix                  : Default (MPEG)
Codec ID                                 : V_MS/VFW/FOURCC / XVID
Codec ID/Hint                            : XviD
Duration                                 : 1h 36mn
Bit rate                                 : 832 Kbps
Width                                    : 624 pixels
Height                                   : 320 pixels
Display aspect ratio                     : 1.950
Frame rate mode                          : Constant
Frame rate                               : 25.000 fps
Color space                              : YUV
Chroma subsampling                       : 4:2:0
Bit depth                                : 8 bits
Scan type                                : Progressive
Bits/(Pixel*Frame)                       : 0.167
Stream size                              : 573 MiB (85%)
Language                                 : English
Default                                  : Yes
Forced                                   : No

Audio
ID                                       : 2
Format                                   : MPEG Audio
Format version                           : Version 1
Format profile                           : Layer 3
Mode                                     : Joint stereo
Muxing mode                              : Header stripping
Codec ID                                 : A_MPEG/L3
Codec ID/Hint                            : MP3
Duration                                 : 1h 36mn
Bit rate mode                            : Constant
Bit rate                                 : 128 Kbps
Channel(s)                               : 2 channels
Sampling rate                            : 44.1 KHz
Stream size                              : 88.1 MiB (13%)
Language                                 : English
Default                                  : Yes
Forced                                   : No



Imdb info:

Jack is a children's author turned crime novelist whose detailed research into the lives of Victorian serial killers has turned him into a paranoid wreck, persecuted by the irrational fear of being murdered. When Jack is thrown a life-line by his long-suffering agent and a mysterious Hollywood executive takes a sudden and inexplicable interest in his script, what should be his big break rapidly turns into his big breakdown, as Jack is forced to confront his worst demons; among them his love life, his laundry and the origin of all fear.

Directors: Crispian Mills, Chris Hopewell
Writer: Crispian Mills (screenplay)
Stars: Simon Pegg, Kai Boyce and Zaak Conway
 
http://www.imdb.com/title/tt2006040/

Genres: Comedy

Screen Shot:
 
http://www.shotpix.com/images/03951282386765456177.png 
http://www.shotpix.com/images/78785073674634638942.png 
http://www.shotpix.com/images/47672641206972598919.png 
http://www.shotpix.com/images/68567692303854098078.png 
http://www.shotpix.com/images/74161301544440599118.png 
http://www.shotpix.com/images/08464461492137737364.png